<svg xmlns="http://www.w3.org/2000/svg" width="104" height="88" viewBox="0 0 104 88">
  <defs>
    <style>
      .cls-1 {
        fill: #fff;
      }

      .cls-1, .cls-2 {
        stroke: #008482;
        stroke-linejoin: round;
        stroke-width: 3px;
        fill-rule: evenodd;
      }

      .cls-2 {
        fill: #fbffff;
      }
    </style>
  </defs>
  <path class="cls-1" d="M254.342,2276.36c3.867,0,7.806-3.62,7.806-7.45s-3.75-7.74-7.617-7.74-7.711,4-7.711,7.83A7.805,7.805,0,0,0,254.342,2276.36Zm15.231,22.18v-11.49c0-3.76.252-3.4,0-5.75-0.966-2.87-2.9-3.83-4.833-3.83h-8.7c-3.884,0-5.769-.01-9.636-0.01-1.932,0-3.191-.13-4.626,1.16-1.956,2.2-1.76,2.39-1.76,8.52v11.7c0,3.03-.516,7.74,2.542,7.74,2.9,0,2.876-2.06,2.876-5.11,0-4.32-.01-5.44-0.01-7.99,0-2.79-.162-3.26.4-3.26s0.565,0.03.565,3c0,2.74-.021,41.4-0.021,43.64a3.676,3.676,0,0,0,3.943,3.97c2.9,0,4.114-1.68,4.114-3.6v-20.12c0-1.91.065-2.84,0.543-2.84s0.424,0.93.424,2.84v20.12a4.178,4.178,0,0,0,4.176,3.78c1.934,0,3.711-2.46,3.711-3.74,0-7.66.045-41.76,0.045-44.17,0-1.31-.114-2.96.381-2.96s0.483,0.45.483,2.33v7.38c0,5.03.79,6.36,2.723,6.36C269.818,2306.21,269.573,2301.29,269.573,2298.54Z" transform="translate(-236 -2257)"/>
  <path id="Shape_3_copy" data-name="Shape 3 copy" class="cls-1" d="M287.005,2276.18c3.867,0,7.805-3.62,7.805-7.46s-3.75-7.73-7.617-7.73-7.71,4-7.71,7.83A7.8,7.8,0,0,0,287.005,2276.18Zm15.23,22.18v-11.49c0-3.76.253-3.4,0-5.75-0.965-2.87-2.9-3.83-4.832-3.83h-8.7c-3.884,0-5.77-.01-9.637-0.01-1.932,0-3.191-.13-4.625,1.16-1.956,2.2-1.76,2.39-1.76,8.52v11.7c0,3.03-.517,7.73,2.542,7.73,2.9,0,2.876-2.05,2.876-5.1,0-4.32-.011-5.44-0.011-7.99,0-2.79-.161-3.27.405-3.27s0.564,0.04.564,3c0,2.75-.02,41.41-0.02,43.65a3.676,3.676,0,0,0,3.942,3.97c2.9,0,4.114-1.69,4.114-3.6v-20.12c0-1.91.066-2.84,0.544-2.84s0.424,0.93.424,2.84v20.12a4.178,4.178,0,0,0,4.176,3.78c1.933,0,3.711-2.46,3.711-3.74,0-7.66.044-41.76,0.044-44.17,0-1.31-.113-2.97.381-2.97s0.484,0.45.484,2.34v7.38c0,5.03.789,6.36,2.723,6.36C302.481,2306.03,302.235,2301.11,302.235,2298.36Z" transform="translate(-236 -2257)"/>
  <path id="Shape_3_copy_2" data-name="Shape 3 copy 2" class="cls-2" d="M319.667,2276.18c3.867,0,7.806-3.62,7.806-7.46s-3.75-7.73-7.617-7.73-7.71,4-7.71,7.83A7.8,7.8,0,0,0,319.667,2276.18Zm15.231,22.18v-11.49c0-3.76.252-3.4,0-5.75-0.966-2.87-2.9-3.83-4.833-3.83h-8.7c-3.884,0-5.769-.01-9.636-0.01-1.932,0-3.191-.13-4.625,1.16-1.956,2.2-1.761,2.39-1.761,8.52v11.7c0,3.03-.516,7.73,2.543,7.73,2.9,0,2.875-2.05,2.875-5.1,0-4.32-.01-5.44-0.01-7.99,0-2.79-.161-3.27.405-3.27s0.564,0.04.564,3c0,2.75-.02,41.41-0.02,43.65a3.676,3.676,0,0,0,3.942,3.97c2.9,0,4.114-1.69,4.114-3.6v-20.12c0-1.91.065-2.84,0.544-2.84s0.424,0.93.424,2.84v20.12a4.177,4.177,0,0,0,4.175,3.78c1.934,0,3.711-2.46,3.711-3.74,0-7.66.045-41.76,0.045-44.17,0-1.31-.114-2.97.381-2.97s0.484,0.45.484,2.34v7.38c0,5.03.789,6.36,2.722,6.36C335.144,2306.03,334.9,2301.11,334.9,2298.36Z" transform="translate(-236 -2257)"/>
</svg>
